<svg width="46" height="46" viewBox="0 0 46 46" fill="none" xmlns="http://www.w3.org/2000/svg">
<g id="ic:round-plus">
<path id="Vector" d="M34.4194 24.8713H25.0444V34.2463C25.0444 34.7436 24.8468 35.2205 24.4952 35.5721C24.1436 35.9237 23.6667 36.1213 23.1694 36.1213C22.6721 36.1213 22.1952 35.9237 21.8435 35.5721C21.4919 35.2205 21.2944 34.7436 21.2944 34.2463V24.8713H11.9194C11.4221 24.8713 10.9452 24.6737 10.5935 24.3221C10.2419 23.9705 10.0444 23.4936 10.0444 22.9963C10.0444 22.499 10.2419 22.0221 10.5935 21.6705C10.9452 21.3188 11.4221 21.1213 11.9194 21.1213H21.2944V11.7463C21.2944 11.249 21.4919 10.7721 21.8435 10.4205C22.1952 10.0688 22.6721 9.87128 23.1694 9.87128C23.6667 9.87128 24.1436 10.0688 24.4952 10.4205C24.8468 10.7721 25.0444 11.249 25.0444 11.7463V21.1213H34.4194C34.9167 21.1213 35.3936 21.3188 35.7452 21.6705C36.0968 22.0221 36.2944 22.499 36.2944 22.9963C36.2944 23.4936 36.0968 23.9705 35.7452 24.3221C35.3936 24.6737 34.9167 24.8713 34.4194 24.8713Z" fill="white"/>
</g>
</svg>
