<svg width="24" height="25" viewBox="0 0 24 25" fill="none" xmlns="http://www.w3.org/2000/svg">
<g clip-path="url(#clip0_2_95)">
<path fill-rule="evenodd" clip-rule="evenodd" d="M10.5 2.45355C9.1446 2.45367 7.80887 2.77792 6.60427 3.39925C5.39966 4.02058 4.3611 4.92097 3.57525 6.02531C2.78939 7.12964 2.27902 8.4059 2.08672 9.7476C1.89442 11.0893 2.02576 12.4575 2.46979 13.7381C2.91382 15.0187 3.65766 16.1746 4.63925 17.1093C5.62084 18.0439 6.81171 18.7303 8.11252 19.1112C9.41333 19.492 10.7864 19.5562 12.117 19.2985C13.4477 19.0407 14.6975 18.4685 15.762 17.6296L19.414 21.2816C19.6026 21.4637 19.8552 21.5645 20.1174 21.5622C20.3796 21.5599 20.6304 21.4548 20.8158 21.2694C21.0012 21.084 21.1064 20.8332 21.1087 20.571C21.111 20.3088 21.0102 20.0562 20.828 19.8676L17.176 16.2156C18.164 14.9622 18.7792 13.456 18.9511 11.8693C19.123 10.2826 18.8448 8.67957 18.1482 7.24365C17.4517 5.80772 16.3649 4.59691 15.0123 3.74978C13.6597 2.90266 12.096 2.45345 10.5 2.45355ZM4.00001 10.9536C4.00001 9.22964 4.68483 7.57634 5.90382 6.35736C7.1228 5.13837 8.7761 4.45355 10.5 4.45355C12.2239 4.45355 13.8772 5.13837 15.0962 6.35736C16.3152 7.57634 17 9.22964 17 10.9536C17 12.6775 16.3152 14.3308 15.0962 15.5497C13.8772 16.7687 12.2239 17.4536 10.5 17.4536C8.7761 17.4536 7.1228 16.7687 5.90382 15.5497C4.68483 14.3308 4.00001 12.6775 4.00001 10.9536Z" fill="black"/>
</g>
<defs>
<clipPath id="clip0_2_95">
<rect width="24" height="24" fill="white" transform="translate(0 0.453552)"/>
</clipPath>
</defs>
</svg>
