<svg width="24" height="25" viewBox="0 0 24 25" fill="none" xmlns="http://www.w3.org/2000/svg">
<path d="M14 5.45355C14 4.35355 13.1 3.45355 12 3.45355C10.9 3.45355 10 4.35355 10 5.45355C10 6.55355 10.9 7.45355 12 7.45355C13.1 7.45355 14 6.55355 14 5.45355ZM14 19.4536C14 18.3536 13.1 17.4536 12 17.4536C10.9 17.4536 10 18.3536 10 19.4536C10 20.5536 10.9 21.4536 12 21.4536C13.1 21.4536 14 20.5536 14 19.4536ZM14 12.4536C14 11.3536 13.1 10.4536 12 10.4536C10.9 10.4536 10 11.3536 10 12.4536C10 13.5536 10.9 14.4536 12 14.4536C13.1 14.4536 14 13.5536 14 12.4536Z" fill="black"/>
</svg>
